{
  "accessors": [
    {
      "bufferView": 2,
      "componentType": 5126,
      "count": 1231,
      "max": [
        23.571380615234375,
        24.55584716796875,
        32.86293029785156
      ],
      "min": [
        -25.77972412109375,
        -25.994705200195313,
        -5.38177490234375
      ],
      "type": "VEC3"
    },
    {
      "bufferView": 2,
      "byteOffset": 14772,
      "componentType": 5126,
      "count": 1231,
      "max": [
        0.9784426689147949,
        0.9433915615081787,
        0.9932041764259338
      ],
      "min": [
        -0.977803647518158,
        -0.970763623714447,
        -0.9991022348403931
      ],
      "type": "VEC3"
    },
    {
      "bufferView": 3,
      "componentType": 5126,
      "count": 1231,
      "max": [
        0.9868946671485901,
        0.992540717124939,
        0.9995904564857483,
        1.0
      ],
      "min": [
        -0.9779545664787292,
        -0.9947730302810669,
        -0.9959844350814819,
        1.0
      ],
      "type": "VEC4"
    },
    {
      "bufferView": 1,
      "componentType": 5126,
      "count": 1231,
      "max": [
        0.333984375,
        0.240234375
      ],
      "min": [
        0.007061004638671875,
        0.0107421875
      ],
      "type": "VEC2"
    },
    {
      "bufferView": 1,
      "byteOffset": 9848,
      "componentType": 5126,
      "count": 1231,
      "max": [
        0.98828125,
        0.9919357299804688
      ],
      "min": [
        0.00806427001953125,
        0.01220703125
      ],
      "type": "VEC2"
    },
    {
      "bufferView": 1,
      "byteOffset": 19696,
      "componentType": 5126,
      "count": 1231,
      "max": [
        0.333984375,
        0.240234375
      ],
      "min": [
        0.007061004638671875,
        0.0107421875
      ],
      "type": "VEC2"
    },
    {
      "bufferView": 0,
      "componentType": 5125,
      "count": 1584,
      "type": "SCALAR"
    },
    {
      "bufferView": 2,
      "byteOffset": 29544,
      "componentType": 5126,
      "count": 10026,
      "max": [
        -11.637293815612793,
        83.87541961669922,
        -116.97940063476563
      ],
      "min": [
        -77.78695678710938,
        62.80330276489258,
        -186.33078002929688
      ],
      "type": "VEC3"
    },
    {
      "bufferView": 2,
      "byteOffset": 149856,
      "componentType": 5126,
      "count": 10026,
      "max": [
        0.9988707900047302,
        0.9962694644927979,
        0.9988794922828674
      ],
      "min": [
        -0.9995548725128174,
        -0.9998267292976379,
        -0.9996901750564575
      ],
      "type": "VEC3"
    },
    {
      "bufferView": 3,
      "byteOffset": 19696,
      "componentType": 5126,
      "count": 10026,
      "max": [
        0.9999998807907104,
        0.9998743534088135,
        0.9999608993530273,
        1.0
      ],
      "min": [
        -0.9996436238288879,
        -0.9999998807907104,
        -0.9996268153190613,
        1.0
      ],
      "type": "VEC4"
    },
    {
      "bufferView": 1,
      "byteOffset": 29544,
      "componentType": 5126,
      "count": 10026,
      "max": [
        0.67724609375,
        0.25390625
      ],
      "min": [
        0.2783203125,
        0.00341796875
      ],
      "type": "VEC2"
    },
    {
      "bufferView": 1,
      "byteOffset": 109752,
      "componentType": 5126,
      "count": 10026,
      "max": [
        0.9892578125,
        0.9919357299804688
      ],
      "min": [
        0.00806427001953125,
        0.0087890625
      ],
      "type": "VEC2"
    },
    {
      "bufferView": 1,
      "byteOffset": 189960,
      "componentType": 5126,
      "count": 10026,
      "max": [
        0.67724609375,
        0.25390625
      ],
      "min": [
        0.2783203125,
        0.00341796875
      ],
      "type": "VEC2"
    },
    {
      "bufferView": 0,
      "byteOffset": 6336,
      "componentType": 5125,
      "count": 10212,
      "type": "SCALAR"
    }
  ],
  "asset": {
    "extras": {
      "author": "JanaB (https://sketchfab.com/JanaB_)",
      "license": "CC-BY-4.0 (http://creativecommons.org/licenses/by/4.0/)",
      "source": "https://sketchfab.com/3d-models/small-fire-place-33c9e45bb4ef400b9e88dbb681fa26fe",
      "title": "small fire place"
    },
    "generator": "Sketchfab-14.97.0",
    "version": "2.0"
  },
  "bufferViews": [
    {
      "buffer": 0,
      "byteLength": 47184,
      "name": "floatBufferViews",
      "target": 34963
    },
    {
      "buffer": 0,
      "byteLength": 270168,
      "byteOffset": 47184,
      "byteStride": 8,
      "name": "floatBufferViews",
      "target": 34962
    },
    {
      "buffer": 0,
      "byteLength": 270168,
      "byteOffset": 317352,
      "byteStride": 12,
      "name": "floatBufferViews",
      "target": 34962
    },
    {
      "buffer": 0,
      "byteLength": 180112,
      "byteOffset": 587520,
      "byteStride": 16,
      "name": "floatBufferViews",
      "target": 34962
    }
  ],
  "buffers": [
    {
      "byteLength": 767632,
      "uri": "scene.bin"
    }
  ],
  "extensionsUsed": [
    "KHR_materials_emissive_strength"
  ],
  "images": [
    {
      "uri": "textures/MAT_environment_baseColor.png"
    },
    {
      "uri": "textures/MAT_environment_metallicRoughness.png"
    },
    {
      "uri": "textures/MAT_environment_emissive.png"
    },
    {
      "uri": "textures/MAT_environment_normal.png"
    }
  ],
  "materials": [
    {
      "doubleSided": true,
      "emissiveFactor": [
        1.0,
        1.0,
        1.0
      ],
      "emissiveTexture": {
        "index": 2
      },
      "extensions": {
        "KHR_materials_emissive_strength": {
          "emissiveStrength": 7.351228143082919
        }
      },
      "name": "MAT_environment",
      "normalTexture": {
        "index": 3
      },
      "pbrMetallicRoughness": {
        "baseColorTexture": {
          "index": 0
        },
        "metallicRoughnessTexture": {
          "index": 1
        }
      }
    }
  ],
  "meshes": [
    {
      "name": "sm_environment_assets_fire_low_MAT_environment_0",
      "primitives": [
        {
          "attributes": {
            "NORMAL": 1,
            "POSITION": 0,
            "TANGENT": 2,
            "TEXCOORD_0": 3,
            "TEXCOORD_1": 4,
            "TEXCOORD_2": 5
          },
          "indices": 6,
          "material": 0,
          "mode": 4
        }
      ]
    },
    {
      "name": "sm_environment_assets_stone1_low20_MAT_environment_0",
      "primitives": [
        {
          "attributes": {
            "NORMAL": 8,
            "POSITION": 7,
            "TANGENT": 9,
            "TEXCOORD_0": 10,
            "TEXCOORD_1": 11,
            "TEXCOORD_2": 12
          },
          "indices": 13,
          "material": 0,
          "mode": 4
        }
      ]
    }
  ],
  "nodes": [
    {
      "children": [
        1
      ],
      "matrix": [
        1.0,
        0.0,
        0.0,
        0.0,
        0.0,
        2.220446049250313e-16,
        -1.0,
        0.0,
        0.0,
        1.0,
        2.220446049250313e-16,
        0.0,
        0.0,
        0.0,
        0.0,
        1.0
      ],
      "name": "Sketchfab_model"
    },
    {
      "children": [
        2
      ],
      "matrix": [
        0.009999999776482582,
        0.0,
        0.0,
        0.0,
        0.0,
        0.0,
        0.009999999776482582,
        0.0,
        0.0,
        -0.009999999776482582,
        0.0,
        0.0,
        0.0,
        0.0,
        0.0,
        1.0
      ],
      "name": "1819c0d05d524f478a487b92878d6522.fbx"
    },
    {
      "children": [
        3,
        5
      ],
      "name": "RootNode"
    },
    {
      "children": [
        4
      ],
      "matrix": [
        0.9999626691927075,
        0.008640614619102465,
        8.673617379884035e-19,
        0.0,
        -8.673617379884035e-19,
        0.0,
        -1.0,
        0.0,
        -0.008640614619102465,
        0.9999626691927076,
        0.0,
        0.0,
        0.2895375192165375,
        3.9356887340545654,
        0.3651309311389923,
        1.0
      ],
      "name": "sm_environment_assets_fire_low"
    },
    {
      "mesh": 0,
      "name": "sm_environment_assets_fire_low_MAT_environment_0"
    },
    {
      "children": [
        6
      ],
      "matrix": [
        0.9999626691927075,
        0.008640614619102462,
        0.0,
        0.0,
        -0.008640614619102462,
        0.9999626691927075,
        0.0,
        0.0,
        0.0,
        0.0,
        1.0,
        0.0,
        45.587806701660156,
        -67.67356872558594,
        152.11349487304688,
        1.0
      ],
      "name": "sm_environment_assets_stone1_low20"
    },
    {
      "mesh": 1,
      "name": "sm_environment_assets_stone1_low20_MAT_environment_0"
    }
  ],
  "samplers": [
    {
      "magFilter": 9729,
      "minFilter": 9987,
      "wrapS": 10497,
      "wrapT": 10497
    }
  ],
  "scene": 0,
  "scenes": [
    {
      "name": "Sketchfab_Scene",
      "nodes": [
        0
      ]
    }
  ],
  "textures": [
    {
      "sampler": 0,
      "source": 0
    },
    {
      "sampler": 0,
      "source": 1
    },
    {
      "sampler": 0,
      "source": 2
    },
    {
      "sampler": 0,
      "source": 3
    }
  ]
}
